# xmcd CD database file
# Copyright (C) 1993-1998 Ti Kan
#
# Track frame offsets:
# 150
# 15727
# 35697
# 60632
# 83380
# 87002
# 105292
# 135020
# 140892
# 153125
# 171692
# 188687
# 189902
# 209720
# 228820
#
# Disc length: 3184 seconds
#
# Revision: 0
# Processed by: cddbd v1.4b41PL1 Copyright (c) Steve Scherf et al.
# Submitted via: inCDius 1.1
#
DISCID=b70c6e0f
DTITLE=Coketale - Mama rade gumbo
DYEAR=1900
DGENRE=
TTITLE0=Je retourne en Louisiana
TTITLE1=Mama rade gumbo
TTITLE2=Un grand jaloux
TTITLE3=Vide ton sac
TTITLE4=Jaloux encore!
TTITLE5=Front page blues
TTITLE6=Honky tonk gris-gris
TTITLE7=Jimi's jam
TTITLE8=La p'tite chose qu'elle a
TTITLE9=Pas de sardines ni de gigot
TTITLE10=West street blues
TTITLE11=Jimi's jam #2
TTITLE12=Si tu me dis
TTITLE13=C'est elle ma poupee
TTITLE14=Seven up
EXTD=
EXTT0=
EXTT1=
EXTT2=
EXTT3=
EXTT4=
EXTT5=
EXTT6=
EXTT7=
EXTT8=
EXTT9=
EXTT10=
EXTT11=
EXTT12=
EXTT13=
EXTT14=
PLAYORDER=
